<svg width="168" height="168" viewBox="0 0 168 168" fill="none" xmlns="http://www.w3.org/2000/svg">
    <g filter="url(#filter0_d)">
        <rect x="2" y="2" width="160" height="160" rx="20" fill="#E1F5FE" />
        <rect x="6" y="6" width="152" height="152" rx="16" stroke="#03A9F4" stroke-opacity="0.25"
            stroke-width="8" />
        <path
            d="M102 10C104.209 10 106 8.20914 106 6C106 3.79086 104.209 2 102 2V10ZM22 10H102V2H22V10Z"
            fill="#03A9F4" />
        <path
            d="M2 102C2 104.209 3.79086 106 6 106C8.20914 106 10 104.209 10 102H2ZM6 86H10H6ZM6 58.8H2H6ZM2 86C2 86.0159 2 86.9196 2 86.9379C2 86.9533 2 87.8651 2 87.8829C2 87.8977 2 88.818 2 88.8353C2 88.8493 2 89.7786 2 89.7952C2 89.8023 2 90.2704 2 90.2782C2 90.2817 2 90.5167 2 90.5204C2 90.5305 2 90.5406 2 90.5507C2 90.5608 2 90.5709 2 90.581C2 90.5819 2 90.6408 2 90.6417C2 90.6434 2 90.7613 2 90.7631C2 90.7698 2 91.2427 2 91.2501C2 91.2518 2 91.3704 2 91.3721C2 91.3823 2 91.3925 2 91.4026C2 91.4128 2 91.423 2 91.4332C2 91.434 2 91.4934 2 91.4943C2 91.4976 2 91.7356 2 91.7391C2 91.7453 2 92.2233 2 92.2302C2 92.2333 2 92.4732 2 92.4765C2 92.4868 2 92.4971 2 92.5074C2 92.5176 2 92.5279 2 92.5382C2 92.539 2 92.5991 2 92.5999C2 92.6014 2 92.7218 2 92.7234C2 92.7249 2 92.8455 2 92.847C2 92.8486 2 92.9693 2 92.9708C2 92.9738 2 93.2157 2 93.2188C2 93.2243 2 93.7101 2 93.7164C2 93.7178 2 93.8397 2 93.8411C2 93.8418 2 93.9028 2 93.9035C2 93.9139 2 93.9243 2 93.9347C2 93.9451 2 93.9556 2 93.966C2 93.9686 2 94.2133 2 94.2161C2 94.2211 2 94.7125 2 94.7182C2 94.7228 2 95.2171 2 95.2225C2 95.2268 2 95.724 2 95.7291C2 95.7331 2 96.2333 2 96.2381C2 96.2386 2 96.3013 2 96.3018C2 96.3125 2 96.3231 2 96.3337C2 96.3444 2 96.355 2 96.3657C2 96.3667 2 96.4924 2 96.4934C2 96.4953 2 96.7473 2 96.7494C2 96.7527 2 97.259 2 97.2631C2 97.2661 2 97.7755 2 97.7793C2 97.7819 2 98.2944 2 98.2979C2 98.3002 2 98.8159 2 98.8191C2 98.8209 2 99.34 2 99.3427C2 99.3442 2 99.8666 2 99.8689C2 99.87 2 100.396 2 100.398C2 100.398 2 100.928 2 100.929C2 100.929 2 101.462 2 101.463C2 101.463 2 101.731 2 101.731C2 101.731 2 101.865 2 101.866C2 101.866 2 101.933 2 101.933C2 101.944 2 101.955 2 101.966C2 101.978 2 101.989 2 102H10C10 96.1323 10 91.1113 10 86H2ZM2 22C2 22.0278 2 22.0557 2 22.0835C2 22.1113 2 22.1391 2 22.1669C2 22.1671 2 22.3335 2 22.3336C2 22.3343 2 22.6658 2 22.6661C2 22.6689 2 23.3267 2 23.3281C2 23.3323 2 23.9832 2 23.986C2 23.9916 2 24.6357 2 24.64C2 24.6469 2 25.2843 2 25.2899C2 25.3169 2 25.3439 2 25.3709C2 25.3979 2 25.4249 2 25.4518C2 25.4538 2 25.6116 2 25.6135C2 25.6177 2 25.9321 2 25.936C2 25.9459 2 26.5697 2 26.5783C2 26.5896 2 27.2067 2 27.2168C2 27.2297 2 27.8399 2 27.8516C2 27.8779 2 27.9043 2 27.9306C2 27.957 2 27.9833 2 28.0097C2 28.036 2 28.0623 2 28.0887C2 28.115 2 28.1413 2 28.1676C2 28.1749 2 28.4757 2 28.4827C2 28.4989 2 29.0952 2 29.1102C2 29.1144 2 29.2624 2 29.2666C2 29.2709 2 29.4184 2 29.4227C2 29.4317 2 29.7255 2 29.7342C2 29.7389 2 29.8851 2 29.8897C2 29.9156 2 29.9415 2 29.9674C2 29.9932 2 30.0191 2 30.0449C2 30.055 2 30.345 2 30.3548C2 30.3767 2 30.9511 2 30.9719C2 30.9836 2 31.2679 2 31.2792C2 31.3048 2 31.3304 2 31.3559C2 31.3815 2 31.407 2 31.4326C2 31.4581 2 31.4836 2 31.5092C2 31.5347 2 31.5602 2 31.5857C2 31.6124 2 32.1706 2 32.1962C2 32.2258 2 32.775 2 32.8035C2 32.8287 2 32.8539 2 32.8792C2 32.9044 2 32.9296 2 32.9548C2 32.9628 2 33.098 2 33.1059C2 33.1227 2 33.391 2 33.4076C2 33.4445 2 33.9727 2 34.0085C2 34.0184 2 34.1485 2 34.1583C2 34.1833 2 34.2082 2 34.2331C2 34.258 2 34.283 2 34.3079C2 34.3294 2 34.5852 2 34.6065C2 34.6545 2 35.1544 2 35.2014C2 35.2261 2 35.2509 2 35.2756C2 35.3003 2 35.325 2 35.3497C2 35.3744 2 35.3991 2 35.4237C2 35.4484 2 35.4731 2 35.4978C2 35.5272 2 35.7643 2 35.7934C2 35.8619 2 36.315 2 36.3825C2 36.4022 2 36.5097 2 36.5294C2 36.5538 2 36.5783 2 36.6027C2 36.6272 2 36.6516 2 36.676C2 36.7229 2 36.9222 2 36.9689C2 37.0909 2 37.4313 2 37.5524C2 37.5933 2 37.657 2 37.6979C2 37.7221 2 37.7463 2 37.7706C2 37.7948 2 37.819 2 37.8432C2 37.97 2 38.0068 2 38.1333C2 38.3641 2 38.1921 2 38.4227C2 38.735 2 38.255 2 38.5672C2 38.5913 2 38.6153 2 38.6394C2 38.6634 2 38.6875 2 38.7115C2 38.7356 2 38.7596 2 38.7836C2 38.8077 2 38.8317 2 38.8557C2 38.8797 2 38.9037 2 38.9277C2 38.9517 2 38.9757 2 38.9997C2 39.0237 2 39.0476 2 39.0716C2 39.0956 2 39.1196 2 39.1435C2 39.1675 2 39.1914 2 39.2154C2 39.2393 2 39.2633 2 39.2872C2 39.3111 2 39.3351 2 39.359C2 39.3829 2 39.4068 2 39.4307C2 39.4546 2 39.4785 2 39.5024C2 39.5263 2 39.5502 2 39.5741C2 39.598 2 39.6218 2 39.6457C2 39.6696 2 39.6934 2 39.7173C2 39.7411 2 39.765 2 39.7888C2 39.8127 2 39.8365 2 39.8603C2 39.8842 2 39.908 2 39.9318C2 39.9556 2 39.9794 2 40.0032C2 40.027 2 40.0508 2 40.0746C2 40.0984 2 40.1222 2 40.146C2 40.1698 2 40.1935 2 40.2173C2 40.2411 2 40.2648 2 40.2886C2 40.3123 2 40.3361 2 40.3598C2 40.3836 2 40.4073 2 40.431C2 40.4548 2 40.4785 2 40.5022C2 40.5259 2 40.5496 2 40.5733C2 40.597 2 40.6207 2 40.6444C2 40.6681 2 40.6918 2 40.7155C2 40.7392 2 40.7628 2 40.7865C2 40.8102 2 40.8338 2 40.8575C2 40.8811 2 40.9048 2 40.9284C2 40.9521 2 40.9757 2 40.9993C2 41.023 2 41.0466 2 41.0702C2 41.0938 2 41.1174 2 41.141C2 41.1646 2 41.1882 2 41.2118C2 41.2354 2 41.259 2 41.2826C2 41.3062 2 41.3298 2 41.3533C2 41.3769 2 41.4005 2 41.424C2 41.4476 2 41.4711 2 41.4947C2 41.5182 2 41.5418 2 41.5653C2 47.5734 2 53.2428 2 58.8H10C10 53.2428 10 47.5734 10 41.5653C10 41.5418 10 41.5182 10 41.4947C10 41.4711 10 41.4476 10 41.424C10 41.4005 10 41.3769 10 41.3533C10 41.3298 10 41.3062 10 41.2826C10 41.259 10 41.2354 10 41.2118C10 41.1882 10 41.1646 10 41.141C10 41.1174 10 41.0938 10 41.0702C10 41.0466 10 41.023 10 40.9993C10 40.9757 10 40.9521 10 40.9284C10 40.9048 10 40.8811 10 40.8575C10 40.8338 10 40.8102 10 40.7865C10 40.7628 10 40.7392 10 40.7155C10 40.6918 10 40.6681 10 40.6444C10 40.6207 10 40.597 10 40.5733C10 40.5496 10 40.5259 10 40.5022C10 40.4785 10 40.4548 10 40.431C10 40.4073 10 40.3836 10 40.3598C10 40.3361 10 40.3123 10 40.2886C10 40.2648 10 40.2411 10 40.2173C10 40.1935 10 40.1698 10 40.146C10 40.1222 10 40.0984 10 40.0746C10 40.0508 10 40.027 10 40.0032C10 39.9794 10 39.9556 10 39.9318C10 39.908 10 39.8842 10 39.8603C10 39.8365 10 39.8127 10 39.7888C10 39.765 10 39.7411 10 39.7173C10 39.6934 10 39.6696 10 39.6457C10 39.6218 10 39.598 10 39.5741C10 39.5502 10 39.5263 10 39.5024C10 39.4785 10 39.4546 10 39.4307C10 39.4068 10 39.3829 10 39.359C10 39.3351 10 39.3111 10 39.2872C10 39.2633 10 39.2393 10 39.2154C10 39.1914 10 39.1675 10 39.1435C10 39.1196 10 39.0956 10 39.0716C10 39.0476 10 39.0237 10 38.9997C10 38.9757 10 38.9517 10 38.9277C10 38.9037 10 38.8797 10 38.8557C10 38.8317 10 38.8077 10 38.7836C10 38.7596 10 38.7356 10 38.7115C10 38.6875 10 38.6634 10 38.6394C10 38.6153 10 38.5913 10 38.5672C10 38.255 10 38.735 10 38.4227C10 38.1921 10 38.3641 10 38.1333C10 37.8294 10 37.2764 10 36.9689C10 36.8184 10 35.9476 10 35.7934C10 35.6926 10 34.7112 10 34.6065C10 34.5816 10 34.5568 10 34.5319C10 34.507 10 34.4822 10 34.4573C10 34.4468 10 34.3184 10 34.3079C10 34.288 10 34.0287 10 34.0085C10 33.999 10 33.8681 10 33.8586C10 33.8336 10 33.8086 10 33.7835C10 33.7585 10 33.7335 10 33.7084C10 33.6995 10 33.5671 10 33.5581C10 33.5494 10 33.4163 10 33.4076C10 33.3991 10 33.2653 10 33.2568C10 33.2317 10 33.2065 10 33.1814C10 33.1562 10 33.1311 10 33.1059C10 33.0903 10 32.8194 10 32.8035C10 32.7959 10 32.6595 10 32.652C10 32.6267 10 32.6014 10 32.5761C10 32.5508 10 32.5255 10 32.5002C10 32.4862 10 32.2105 10 32.1962C10 32.1829 10 31.9049 10 31.8914C10 31.8659 10 31.8405 10 31.815C10 31.7896 10 31.7641 10 31.7386C10 31.7324 10 31.592 10 31.5857C10 31.5737 10 31.2915 10 31.2792C10 31.2734 10 31.1316 10 31.1257C10 31.1001 10 31.0745 10 31.0488C10 31.0232 10 30.9976 10 30.9719C10 30.9511 10 30.3767 10 30.3548C10 30.329 10 30.3032 10 30.2774C10 30.2516 10 30.2258 10 30.2C10 30.1951 10 30.0499 10 30.0449C10 30.0357 10 29.7438 10 29.7342C10 29.7083 10 29.6824 10 29.6564C10 29.6305 10 29.6045 10 29.5786C10 29.5526 10 29.5266 10 29.5007C10 29.4747 10 29.4487 10 29.4227C10 29.4184 10 29.2709 10 29.2666C10 29.2624 10 29.1144 10 29.1102C10 29.1062 10 28.9578 10 28.9537C10 28.9498 10 28.8009 10 28.7969C10 28.7931 10 28.6438 10 28.6399C10 28.6137 10 28.5875 10 28.5613C10 28.5351 10 28.5089 10 28.4827C10 28.4694 10 27.8661 10 27.8516C10 27.8454 10 27.5411 10 27.5346C10 27.5082 10 27.4817 10 27.4552C10 27.4288 10 27.4023 10 27.3758C10 27.3729 10 27.2197 10 27.2168C10 27.2067 10 26.5896 10 26.5783C10 26.5736 10 26.2626 10 26.2576C10 26.2309 10 26.2041 10 26.1773C10 26.1505 10 26.1237 10 26.0969C10 26.0948 10 25.9382 10 25.936C10 25.9289 10 25.2983 10 25.2899C10 25.2843 10 24.6469 10 24.64C10 24.6386 10 24.4783 10 24.4769C10 24.4497 10 24.4224 10 24.3952C10 24.368 10 24.3407 10 24.3135C10 24.3114 10 23.9885 10 23.986C10 23.9832 10 23.3323 10 23.3281C10 23.3267 10 22.6689 10 22.6661C10 22.6658 10 22.3343 10 22.3336C10 22.3335 10 22.1671 10 22.1669C10 22.1391 10 22.1113 10 22.0835C10 22.0557 10 22.0278 10 22H2ZM2 58.8C2 61.1471 2 63.0396 2 65.3873C2 65.4045 2 65.4217 2 65.4389C2 65.456 2 65.4732 2 65.4904C2 65.5076 2 65.5248 2 65.542C2 65.5592 2 65.5763 2 65.5935C2 65.6107 2 65.6279 2 65.6451C2 65.6623 2 65.6795 2 65.6967C2 65.7139 2 65.7311 2 65.7482C2 65.7654 2 65.7826 2 65.7998C2 65.817 2 65.8342 2 65.8514C2 65.8686 2 65.8858 2 65.903C2 65.9202 2 65.9374 2 65.9546C2 65.9718 2 65.989 2 66.0062C2 66.0234 2 66.0406 2 66.0578C2 66.075 2 66.0922 2 66.1094C2 66.1266 2 66.1438 2 66.161C2 66.1782 2 66.1954 2 66.2126C2 66.2298 2 66.247 2 66.2642C2 66.2814 2 66.2986 2 66.3158C2 66.3331 2 66.3503 2 66.3675C2 66.3847 2 66.4019 2 66.4191C2 66.4363 2 66.4535 2 66.4707C2 66.488 2 66.5052 2 66.5224C2 66.5396 2 66.5568 2 66.574C2 66.5913 2 66.6085 2 66.6257C2 66.6429 2 66.6601 2 66.6773C2 66.6946 2 66.7118 2 66.729C2 66.7462 2 66.7635 2 66.7807C2 66.7979 2 66.8151 2 66.8324C2 66.8496 2 66.8668 2 66.884C2 66.9013 2 66.9185 2 66.9357C2 66.9529 2 66.9702 2 66.9874C2 67.0046 2 67.0219 2 67.0391C2 67.0563 2 67.0736 2 67.0908C2 67.108 2 67.1253 2 67.1425C2 67.1597 2 67.177 2 67.1942C2 67.2115 2 67.2287 2 67.2459C2 67.2632 2 67.2804 2 67.2977C2 67.3149 2 67.3321 2 67.3494C2 67.3666 2 67.3839 2 67.4011C2 67.4184 2 67.4356 2 67.4529C2 67.4701 2 67.4874 2 67.5046C2 67.5219 2 67.5391 2 67.5564C2 67.5736 2 67.5909 2 67.6081C2 67.6254 2 67.6426 2 67.6599C2 67.6772 2 67.6944 2 67.7117C2 67.7289 2 67.7462 2 67.7634C2 67.7807 2 67.798 2 67.8152C2 67.8325 2 67.8498 2 67.867C2 67.8843 2 67.9016 2 67.9188C2 67.9361 2 67.9534 2 67.9706C2 67.9879 2 68.0052 2 68.0224C2 68.0397 2 68.057 2 68.0743C2 68.0915 2 68.1088 2 68.1261C2 68.1434 2 68.1606 2 68.1779C2 68.1952 2 68.2125 2 68.2298C2 68.247 2 68.2643 2 68.2816C2 68.2989 2 68.3162 2 68.3335C2 68.3507 2 68.368 2 68.3853C2 68.4026 2 68.4199 2 68.4372C2 68.4545 2 68.4718 2 68.4891C2 68.5063 2 68.5236 2 68.5409C2 68.5582 2 68.5755 2 68.5928C2 68.6101 2 68.6274 2 68.6447C2 68.662 2 68.6793 2 68.6966C2 68.7139 2 68.7312 2 68.7485C2 68.7658 2 68.7831 2 68.8004C2 68.8178 2 68.8351 2 68.8524C2 68.8697 2 68.887 2 68.9043C2 68.9216 2 68.9389 2 68.9562C2 68.9736 2 68.9909 2 69.0082C2 69.0255 2 69.0428 2 69.0602C2 69.0775 2 69.0948 2 69.1121C2 69.1294 2 69.1468 2 69.1641C2 69.1814 2 69.1987 2 69.2161C2 69.2334 2 69.2507 2 69.2681C2 69.2854 2 69.3027 2 69.3201C2 69.3374 2 69.3547 2 69.3721C2 69.3894 2 69.4067 2 69.4241C2 69.4414 2 69.4587 2 69.4761C2 69.4934 2 69.5108 2 69.5281C2 69.5455 2 69.5628 2 69.5802C2 69.5975 2 69.6148 2 69.6322C2 69.6496 2 69.6669 2 69.6843C2 69.7016 2 69.719 2 69.7363C2 69.7537 2 69.771 2 69.7884C2 69.8057 2 69.8231 2 69.8405C2 69.8578 2 69.8752 2 69.8926C2 69.9099 2 69.9273 2 69.9447C2 69.962 2 69.9794 2 69.9968C2 70.0141 2 70.0315 2 70.0489C2 70.0662 2 70.0836 2 70.101C2 70.1184 2 70.1358 2 70.1531C2 70.2713 2 70.1392 2 70.2574C2 70.2748 2 70.2922 2 70.3096C2 70.327 2 70.3444 2 70.3618C2 70.5174 2 71.0413 2 71.1978C2 71.241 2 71.5732 2 71.6167C2 71.6347 2 71.8084 2 71.8265C2 71.8439 2 71.8614 2 71.8789C2 71.8964 2 71.9139 2 71.9314C2 71.9393 2 72.0284 2 72.0364C2 72.0648 2 72.4281 2 72.4567C2 72.4695 2 72.6544 2 72.6672C2 72.6847 2 72.7023 2 72.7198C2 72.7374 2 72.7549 2 72.7725C2 72.7784 2 72.8719 2 72.8778C2 72.8835 2 72.9775 2 72.9832C2 73.0008 2 73.0184 2 73.0359C2 73.0535 2 73.0711 2 73.0887C2 73.0993 2 73.289 2 73.2997C2 73.3173 2 73.3349 2 73.3525C2 73.3701 2 73.3877 2 73.4053C2 73.4103 2 73.5059 2 73.5109C2 73.5158 2 73.6117 2 73.6166C2 73.6342 2 73.6519 2 73.6695C2 73.6871 2 73.7047 2 73.7224C2 73.7562 2 74.5352 2 74.5702C2 74.5741 2 74.6725 2 74.6764C2 74.6941 2 74.7118 2 74.7295C2 74.7473 2 74.765 2 74.7827C2 74.7902 2 74.9879 2 74.9954C2 75.0095 2 75.4072 2 75.4216C2 75.4283 2 75.6282 2 75.635C2 75.6528 2 75.6706 2 75.6884C2 75.7062 2 75.724 2 75.7418C2 75.7451 2 75.8454 2 75.8487C2 75.855 2 76.0562 2 76.0626C2 76.0804 2 76.0983 2 76.1161C2 76.1339 2 76.1518 2 76.1696C2 76.1727 2 76.2737 2 76.2767C2 76.2988 2 77.1125 2 77.1359C2 77.1539 2 77.1718 2 77.1898C2 77.2077 2 77.2257 2 77.2436C2 77.2616 2 77.2795 2 77.2975C2 77.3154 2 77.3334 2 77.3514C2 77.3564 2 77.5619 2 77.5671C2 77.5767 2 77.9894 2 77.9993C2 78.0163 2 78.8487 2 78.8672C2 81.2781 2 83.4685 2 86H10C10 83.7698 10 80.9768 10 78.8672C10 76.7117 10 74.1113 10 72.0364C10 67.4243 10 63.3298 10 58.8H2Z"
            fill="#03A9F4" />
        <path
            d="M2 22C2 19.3736 2.51732 16.7728 3.52242 14.3463C4.52751 11.9198 6.00071 9.71502 7.85789 7.85784C9.71506 6.00067 11.9199 4.52748 14.3464 3.52239C16.7729 2.5173 19.3736 1.99999 22.0001 2L22 10C20.4242 10 18.8637 10.3104 17.4078 10.9134C15.9519 11.5165 14.629 12.4004 13.5147 13.5147C12.4004 14.629 11.5165 15.9519 10.9134 17.4078C10.3104 18.8637 10 20.4241 10 22H2Z"
            fill="#03A9F4" />
    </g>
    <defs>
        <filter id="filter0_d" x="0" y="0" width="168" height="168" filterUnits="userSpaceOnUse"
            color-interpolation-filters="sRGB">
            <feFlood flood-opacity="0" result="BackgroundImageFix" />
            <feColorMatrix in="SourceAlpha" type="matrix"
                values="0 0 0 0 0 0 0 0 0 0 0 0 0 0 0 0 0 0 127 0" />
            <feOffset dx="2" dy="2" />
            <feGaussianBlur stdDeviation="2" />
            <feColorMatrix type="matrix" values="0 0 0 0 0 0 0 0 0 0 0 0 0 0 0 0 0 0 0.25 0" />
            <feBlend mode="normal" in2="BackgroundImageFix" result="effect1_dropShadow" />
            <feBlend mode="normal" in="SourceGraphic" in2="effect1_dropShadow" result="shape" />
        </filter>
    </defs>
</svg>
